<?xml version="1.0" encoding="UTF-8"?>
<svg xmlns="http://www.w3.org/2000/svg" xmlns:xlink="http://www.w3.org/1999/xlink" viewBox="0 0 25 25" width="25px" height="25px">
<g id="surface3667798">
<path style=" stroke:none;fill-rule:nonzero;fill:rgb(80.000001%,80.000001%,80.000001%);fill-opacity:1;" d="M 8.59375 2.605469 C 5.296875 2.605469 2.605469 5.296875 2.605469 8.59375 L 2.605469 16.40625 C 2.605469 19.703125 5.292969 22.394531 8.59375 22.394531 L 16.40625 22.394531 C 19.703125 22.394531 22.394531 19.703125 22.394531 16.40625 L 22.394531 8.59375 C 22.394531 5.292969 19.703125 2.605469 16.40625 2.605469 Z M 8.59375 4.167969 L 16.40625 4.167969 C 18.859375 4.167969 20.832031 6.140625 20.832031 8.59375 L 20.832031 16.40625 C 20.832031 18.859375 18.859375 20.832031 16.40625 20.832031 L 8.59375 20.832031 C 6.140625 20.832031 4.167969 18.859375 4.167969 16.40625 L 4.167969 8.59375 C 4.167969 6.140625 6.140625 4.167969 8.59375 4.167969 Z M 17.707031 6.25 C 17.132812 6.25 16.667969 6.714844 16.667969 7.292969 C 16.667969 7.867188 17.132812 8.332031 17.707031 8.332031 C 18.285156 8.332031 18.75 7.867188 18.75 7.292969 C 18.75 6.714844 18.285156 6.25 17.707031 6.25 Z M 12.5 7.292969 C 9.632812 7.292969 7.292969 9.632812 7.292969 12.5 C 7.292969 15.367188 9.632812 17.707031 12.5 17.707031 C 15.367188 17.707031 17.707031 15.367188 17.707031 12.5 C 17.707031 9.632812 15.367188 7.292969 12.5 7.292969 Z M 12.5 8.855469 C 14.523438 8.855469 16.144531 10.476562 16.144531 12.5 C 16.144531 14.523438 14.523438 16.144531 12.5 16.144531 C 10.476562 16.144531 8.855469 14.523438 8.855469 12.5 C 8.855469 10.476562 10.476562 8.855469 12.5 8.855469 Z M 12.5 8.855469 "/>
</g>
</svg>
