<?xml version="1.0" encoding="UTF-8"?>
<svg xmlns="http://www.w3.org/2000/svg" xmlns:xlink="http://www.w3.org/1999/xlink" viewBox="0 0 25 25" width="25px" height="25px">
<g id="surface3668960">
<path style=" stroke:none;fill-rule:nonzero;fill:rgb(80.000001%,80.000001%,80.000001%);fill-opacity:1;" d="M 5.988281 3.125 C 4.417969 3.125 3.125 4.417969 3.125 5.988281 L 3.125 19.011719 C 3.125 20.582031 4.417969 21.875 5.988281 21.875 L 19.011719 21.875 C 20.582031 21.875 21.875 20.582031 21.875 19.011719 L 21.875 5.988281 C 21.875 4.417969 20.582031 3.125 19.011719 3.125 Z M 5.988281 4.6875 L 19.011719 4.6875 C 19.738281 4.6875 20.3125 5.261719 20.3125 5.988281 L 20.3125 19.011719 C 20.3125 19.738281 19.738281 20.3125 19.011719 20.3125 L 5.988281 20.3125 C 5.261719 20.3125 4.6875 19.738281 4.6875 19.011719 L 4.6875 5.988281 C 4.6875 5.261719 5.261719 4.6875 5.988281 4.6875 Z M 8.074219 6.769531 C 7.355469 6.769531 6.769531 7.355469 6.769531 8.074219 C 6.769531 8.792969 7.355469 9.375 8.074219 9.375 C 8.792969 9.375 9.375 8.792969 9.375 8.074219 C 9.375 7.355469 8.792969 6.769531 8.074219 6.769531 Z M 7.292969 10.417969 C 7.003906 10.417969 6.769531 10.648438 6.769531 10.9375 L 6.769531 17.707031 C 6.769531 17.996094 7.003906 18.230469 7.292969 18.230469 L 8.855469 18.230469 C 9.140625 18.230469 9.375 17.996094 9.375 17.707031 L 9.375 10.9375 C 9.375 10.648438 9.140625 10.417969 8.855469 10.417969 Z M 10.9375 10.417969 C 10.648438 10.417969 10.417969 10.648438 10.417969 10.9375 L 10.417969 17.707031 C 10.417969 17.996094 10.648438 18.230469 10.9375 18.230469 L 12.5 18.230469 C 12.789062 18.230469 13.019531 17.996094 13.019531 17.707031 L 13.019531 13.800781 C 13.019531 13.082031 13.605469 12.5 14.324219 12.5 C 15.042969 12.5 15.625 13.082031 15.625 13.800781 L 15.625 17.707031 C 15.625 17.996094 15.859375 18.230469 16.144531 18.230469 L 17.707031 18.230469 C 17.996094 18.230469 18.230469 17.996094 18.230469 17.707031 L 18.230469 13.542969 C 18.230469 11.816406 16.828125 10.417969 15.105469 10.417969 C 14.304688 10.417969 13.574219 10.722656 13.019531 11.21875 L 13.019531 10.9375 C 13.019531 10.648438 12.789062 10.417969 12.5 10.417969 Z M 10.9375 10.417969 "/>
</g>
</svg>
